<svg width="28" height="23" viewBox="0 0 28 23" fill="none" xmlns="http://www.w3.org/2000/svg">
<path d="M1.13131 6.5811e-05C0.509091 6.5811e-05 0 0.517564 0 1.15006C0 1.78256 0.509091 2.30006 1.13131 2.30006H3.6417L6.61139 14.375C6.86255 15.3985 7.76533 16.1 8.80275 16.1H22.9091C23.9295 16.1 24.7961 15.4123 25.0654 14.4107L28 3.45006H25.631L22.9091 13.8H8.80275L5.83305 1.72506C5.71124 1.22947 5.42903 0.789909 5.03178 0.477044C4.63454 0.164178 4.14534 -0.00381658 3.64283 6.5811e-05H1.13131ZM21.4949 16.1C19.6339 16.1 18.101 17.6583 18.101 19.55C18.101 21.4418 19.6339 23 21.4949 23C23.356 23 24.8889 21.4418 24.8889 19.55C24.8889 17.6583 23.356 16.1 21.4949 16.1ZM11.3131 16.1C9.45212 16.1 7.91919 17.6583 7.91919 19.55C7.91919 21.4418 9.45212 23 11.3131 23C13.1741 23 14.7071 21.4418 14.7071 19.55C14.7071 17.6583 13.1741 16.1 11.3131 16.1ZM14.7071 6.5811e-05V5.75005H11.3131L15.8384 10.35L20.3636 5.75005H16.9697V6.5811e-05H14.7071ZM11.3131 18.4C11.9501 18.4 12.4444 18.9037 12.4444 19.55C12.4444 20.1963 11.9489 20.7 11.3131 20.7C10.6773 20.7 10.1818 20.1963 10.1818 19.55C10.1818 18.9037 10.6773 18.4 11.3131 18.4ZM21.4949 18.4C22.1319 18.4 22.6263 18.9037 22.6263 19.55C22.6263 20.1963 22.1307 20.7 21.4949 20.7C20.8591 20.7 20.3636 20.1963 20.3636 19.55C20.3636 18.9037 20.8591 18.4 21.4949 18.4Z" fill="#E6E6E6"/>
</svg>
